<svg id="Layer_1___188080972" data-name="Layer 1" xmlns="http://www.w3.org/2000/svg" viewBox="0 0 1470.04 612"><defs><style>.cls-1{fill:#4e4e4e;}.cls-2{fill:#b4b4b4;}</style></defs><title>Artboard 1</title><path class="cls-1" d="M811.09,230.1a5.65,5.65,0,0,1-5.66-5.64V141.09a5.65,5.65,0,0,1,11.31,0v83.37a5.66,5.66,0,0,1-5.65,5.64"></path><path class="cls-1" d="M806,385a5.66,5.66,0,0,1-5.66-5.64V295.95a5.66,5.66,0,0,1,11.31,0v83.37A5.66,5.66,0,0,1,806,385"></path><path class="cls-1" d="M462.84,230.1H356.51a5.65,5.65,0,0,1-5.64-5.64V141.09a5.64,5.64,0,0,1,5.64-5.63H462.84a5.65,5.65,0,1,1,0,11.3H362.17v72H462.84a5.65,5.65,0,1,1,0,11.31"></path><path class="cls-1" d="M462.84,188.44H356.51a5.66,5.66,0,0,1,0-11.32H462.84a5.66,5.66,0,1,1,0,11.32"></path><path class="cls-1" d="M1126.13,230.1H1019.79a5.65,5.65,0,0,1-5.66-5.64V141.09a5.64,5.64,0,0,1,5.66-5.63h106.34a5.65,5.65,0,1,1,0,11.3H1025.46v72h100.67a5.65,5.65,0,1,1,0,11.31"></path><path class="cls-1" d="M1126.13,188.44H1019.79a5.66,5.66,0,0,1,0-11.32h106.34a5.66,5.66,0,0,1,0,11.32"></path><path class="cls-1" d="M657.62,385H554.11a5.65,5.65,0,0,1-5.66-5.64V295.95a5.65,5.65,0,0,1,5.66-5.65H657.62a5.65,5.65,0,0,1,0,11.31H559.76v72h97.86a5.66,5.66,0,0,1,0,11.32"></path><path class="cls-1" d="M657.62,343.28H554.11a5.64,5.64,0,1,1,0-11.28H657.62a5.64,5.64,0,1,1,0,11.28"></path><path class="cls-1" d="M1119.92,385H1013.59a5.65,5.65,0,0,1-5.65-5.64V295.95a5.65,5.65,0,0,1,5.65-5.65h106.33a5.65,5.65,0,1,1,0,11.31H1019.24v72h100.68a5.66,5.66,0,1,1,0,11.32"></path><path class="cls-1" d="M1119.92,343.28H1013.59a5.64,5.64,0,1,1,0-11.28h106.33a5.64,5.64,0,1,1,0,11.28"></path><path class="cls-1" d="M505.44,229.65a5.54,5.54,0,0,1-3.42-1.18,5.62,5.62,0,0,1-1.07-7.91l63.34-83a5.65,5.65,0,0,1,9,0l63.35,83a5.64,5.64,0,1,1-9,6.84l-58.87-77.09L509.94,227.4a5.63,5.63,0,0,1-4.5,2.25"></path><path class="cls-1" d="M615.6,206.76H522.89a5.65,5.65,0,1,1,0-11.3H615.6a5.65,5.65,0,1,1,0,11.3"></path><path class="cls-1" d="M1162,384.49a5.52,5.52,0,0,1-3.43-1.17,5.66,5.66,0,0,1-1.08-7.91l63.37-83a5.66,5.66,0,0,1,9,0l63.34,83a5.65,5.65,0,0,1-9,6.87l-58.88-77.1-58.84,77.1a5.69,5.69,0,0,1-4.5,2.21"></path><path class="cls-1" d="M1268.61,361.61h-89.19a5.65,5.65,0,1,1,0-11.3h89.19a5.65,5.65,0,0,1,0,11.3"></path><path class="cls-1" d="M921,229.65a5.63,5.63,0,0,1-4.48-2.25l-63.36-83a5.65,5.65,0,1,1,9-6.85L921,214.66l58.85-77.09a5.65,5.65,0,0,1,9,6.85l-63.35,83a5.65,5.65,0,0,1-4.5,2.25"></path><path class="cls-1" d="M705.12,230.1a5.66,5.66,0,0,1-5.65-5.64V141.09a5.65,5.65,0,0,1,11.31,0v83.37a5.65,5.65,0,0,1-5.66,5.64"></path><path class="cls-1" d="M766.94,146.76H643.3a5.65,5.65,0,0,1,0-11.31H766.94a5.65,5.65,0,1,1,0,11.31"></path><path class="cls-1" d="M28,384.79a5.67,5.67,0,0,1-5.66-5.67v-83a5.65,5.65,0,0,1,11.31,0v83A5.67,5.67,0,0,1,28,384.79"></path><path class="cls-1" d="M506.46,384.79a5.69,5.69,0,0,1-5.66-5.67V312.58l-53.2,69.7a5.65,5.65,0,0,1-4.48,2.21,5.72,5.72,0,0,1-4.5-2.21l-53.2-69.7v66.54a5.65,5.65,0,1,1-11.29,0V295.86a5.65,5.65,0,0,1,10.13-3.45l58.87,77.12L502,292.41a5.66,5.66,0,0,1,10.15,3.45v83.26a5.67,5.67,0,0,1-5.66,5.67"></path><path class="cls-1" d="M145.6,384.79a5.66,5.66,0,0,1-5.62-5.67v-83a5.64,5.64,0,1,1,11.28,0v83a5.66,5.66,0,0,1-5.66,5.67"></path><path class="cls-1" d="M145.6,343.28H28A5.64,5.64,0,1,1,28,332H145.6a5.64,5.64,0,1,1,0,11.28"></path><path class="cls-1" d="M266.34,388.14c-33.18,0-56.45-7.54-69.09-22.39a39.23,39.23,0,0,1-9.55-28.65,39.25,39.25,0,0,1,9.55-28.65c12.64-14.84,35.91-22.36,69.09-22.36s56.46,7.52,69.09,22.36A39.5,39.5,0,0,1,345,337.1a39.46,39.46,0,0,1-9.56,28.65c-12.62,14.85-35.87,22.39-69.09,22.39m0-91c-29.24,0-50.15,6.3-60.51,18.27-8.6,9.93-7.18,20.41-7.12,20.86a5.27,5.27,0,0,1,0,1.72c-.06.4-1.48,10.88,7.12,20.81,10.36,12,31.28,18.31,60.51,18.31,29.4,0,50.37-6.39,60.69-18.51A28.17,28.17,0,0,0,334,338a5.19,5.19,0,0,1,0-1.76c.06-.4,1.46-10.88-7.11-20.81-10.37-12-31.3-18.27-60.53-18.27"></path><path class="cls-1" d="M1380,389.73c-21.11,0-40.7-3.87-53.81-10.6a5.65,5.65,0,0,1,5.17-10.05c11.38,5.86,29.56,9.34,48.65,9.34,16.55,0,32-2.5,43.55-7.05,9.43-3.73,15.31-8.6,15.31-12.72,0-3.76-5.58-7.73-14.92-10.64-10.88-3.38-26.48-5.25-43.94-5.25a5.65,5.65,0,1,1,0-11.3c18.82,0,35.18,2,47.29,5.74,18.92,5.88,22.89,14.91,22.89,21.45,0,9.27-8,17.53-22.47,23.24-12.83,5.05-29.79,7.84-47.7,7.84"></path><path class="cls-1" d="M1393.27,343.49c-44,0-70.19-10.17-70.19-27.2,0-9.27,8-17.51,22.49-23.23,12.84-5.07,29.78-7.84,47.71-7.84,21.09,0,40.69,3.86,53.8,10.6a5.65,5.65,0,1,1-5.17,10.05c-11.38-5.84-29.58-9.33-48.63-9.33-16.53,0-32,2.5-43.56,7-9.46,3.74-15.31,8.6-15.31,12.73,0,3.78,5.58,7.75,14.89,10.66,10.9,3.38,26.51,5.24,44,5.24a5.65,5.65,0,1,1,0,11.31"></path><path class="cls-1" d="M897.13,389.39c-15.06,0-28.3-1.56-39.31-4.59a5.66,5.66,0,0,1-4.16-5.45V294.86a5.63,5.63,0,0,1,4.16-5.44c11-3.05,24.25-4.6,39.31-4.6,34,0,57.83,7.72,70.78,22.92a40.32,40.32,0,0,1,9.8,29.35,40.3,40.3,0,0,1-9.8,29.36c-13,15.2-36.76,22.93-70.78,22.93M865,374.94a146.9,146.9,0,0,0,32.17,3.15c30.13,0,51.64-6.56,62.19-19A28.85,28.85,0,0,0,966.42,338a5.4,5.4,0,0,1,0-1.8c.07-.4,1.5-11.16-7.28-21.34-10.62-12.25-32-18.73-62-18.73A147,147,0,0,0,865,299.27Z"></path><path class="cls-1" d="M103,234.53c-34,0-57.85-7.72-70.78-22.93a40.24,40.24,0,0,1-9.78-29.36,40.2,40.2,0,0,1,9.78-29.34C45.18,137.68,69,130,103,130c15.08,0,28.3,1.53,39.32,4.58a5.65,5.65,0,0,1-3,10.9c-10-2.78-22.26-4.17-36.31-4.17-30,0-51.39,6.47-62,18.73-8.79,10.17-7.34,20.92-7.28,21.36a5,5,0,0,1,0,1.78c-.05.4-1.5,11.15,7.29,21.32,10.64,12.27,32.06,18.73,62,18.73,14.05,0,26.27-1.4,36.33-4.17a5.65,5.65,0,1,1,3,10.9c-11,3-24.25,4.59-39.33,4.59"></path><path class="cls-2" d="M776.8,513.11a3.1,3.1,0,0,1-3.11-3.11V464.39a3.14,3.14,0,0,1,2.68-3.11,224,224,0,0,1,27.31-1.64H804c7.92,0,15.41,0,21.33,1.74,7.53,2.19,11.33,7,11.33,14.23,0,16.27-18.3,16.27-33,16.27a194.19,194.19,0,0,1-23.77-1.48V510a3.12,3.12,0,0,1-3.11,3.11m3.11-29a190.17,190.17,0,0,0,23.77,1.52c6.78,0,14.47,0,19.75-1.61,4.93-1.45,7-4,7-8.42s-2-6.81-6.85-8.23c-5-1.48-12.11-1.48-19.57-1.48h-.34a226.52,226.52,0,0,0-23.77,1.27Z"></path><path class="cls-2" d="M357.48,512.38a3.11,3.11,0,0,1-3.11-3.11V463.21a3.11,3.11,0,0,1,3.11-3.11h65a3.12,3.12,0,0,1,0,6.25H360.59v42.92a3.1,3.1,0,0,1-3.11,3.11"></path><path class="cls-2" d="M422.46,489.36h-65a3.11,3.11,0,0,1,0-6.23h65a3.11,3.11,0,1,1,0,6.23"></path><path class="cls-2" d="M28,512.29a3.15,3.15,0,0,1-2.48-5l35-45.86a3.13,3.13,0,0,1,5,0l35,45.86a3.12,3.12,0,0,1-5,3.78L63,468.47,30.45,511A3.15,3.15,0,0,1,28,512.29"></path><path class="cls-2" d="M88.8,499.65H37.61a3.12,3.12,0,1,1,0-6.24H88.8a3.12,3.12,0,0,1,0,6.24"></path><path class="cls-2" d="M910.27,512.29a3.12,3.12,0,0,1-2.49-1.25l-32.51-42.58L842.75,511a3.11,3.11,0,0,1-4.95-3.78l35-45.86a3.23,3.23,0,0,1,2.5-1.22,3.17,3.17,0,0,1,2.48,1.22l35,45.86a3.14,3.14,0,0,1-2.46,5"></path><path class="cls-2" d="M901.13,499.65h-51.2a3.12,3.12,0,0,1,0-6.24h51.2a3.12,3.12,0,1,1,0,6.24"></path><path class="cls-2" d="M331.16,512.35a3.15,3.15,0,0,1-3.14-3.13V472.47L298.67,511a3.14,3.14,0,0,1-2.49,1.24,3.1,3.1,0,0,1-2.48-1.24l-29.39-38.49v36.75a3.13,3.13,0,0,1-6.26,0v-46a3.13,3.13,0,0,1,2.13-3,3.18,3.18,0,0,1,3.49,1.06l32.5,42.59,32.51-42.59a3.11,3.11,0,0,1,5.59,1.91v46a3.13,3.13,0,0,1-3.12,3.13"></path><path class="cls-2" d="M746.85,512.35a3.13,3.13,0,0,1-3.12-3.13V472.47L714.35,511a3.11,3.11,0,0,1-5,0L680,472.47v36.75a3.12,3.12,0,1,1-6.25,0v-46a3.15,3.15,0,0,1,2.13-3,3.2,3.2,0,0,1,3.5,1.06l32.5,42.59,32.5-42.59a3.18,3.18,0,0,1,3.49-1.06,3.14,3.14,0,0,1,2.12,3v46a3.12,3.12,0,0,1-3.12,3.13"></path><path class="cls-2" d="M1002.5,512.35a3.12,3.12,0,0,1-1.71-.51L935.65,469v40.19a3.13,3.13,0,0,1-6.25,0v-46a3.12,3.12,0,0,1,4.84-2.6l65.14,42.82V463.25a3.12,3.12,0,0,1,6.25,0v46A3.17,3.17,0,0,1,1004,512a3.33,3.33,0,0,1-1.51.36"></path><path class="cls-2" d="M613.15,515.1c-18.78,0-31.93-4.24-39.08-12.66a27,27,0,0,1,0-32.42c7.15-8.38,20.3-12.66,39.08-12.66s31.95,4.28,39.11,12.67a27.06,27.06,0,0,1,0,32.41c-7.16,8.42-20.3,12.66-39.11,12.66m0-51.49c-16.63,0-28.5,3.61-34.34,10.47a16.06,16.06,0,0,0-3.93,11.68,2.74,2.74,0,0,1,0,1,15.78,15.78,0,0,0,4,11.76c5.84,6.8,17.69,10.35,34.23,10.35s28.52-3.6,34.34-10.45a15.92,15.92,0,0,0,3.93-11.67,4.11,4.11,0,0,1,0-1,15.7,15.7,0,0,0-4-11.78c-5.88-6.78-17.71-10.37-34.26-10.37"></path><path class="cls-2" d="M206.77,492.19a3.09,3.09,0,0,1-1.71-.51l-35-22.91a3.13,3.13,0,0,1,3.41-5.24l33.28,21.81L240,463.54a3.13,3.13,0,0,1,3.44,5.24l-35,22.91a3,3,0,0,1-1.7.51"></path><path class="cls-2" d="M206.77,512.29a3.15,3.15,0,0,1-3.13-3.15V489.08a3.13,3.13,0,1,1,6.25,0v20.06a3.15,3.15,0,0,1-3.13,3.15"></path><path class="cls-2" d="M1055.43,492.19a3.15,3.15,0,0,1-1.72-.51l-35-22.91a3.13,3.13,0,0,1,3.43-5.24l33.28,21.81,33.28-21.81a3.13,3.13,0,0,1,3.43,5.24l-35,22.91a3.12,3.12,0,0,1-1.71.51"></path><path class="cls-2" d="M1055.43,512.29a3.12,3.12,0,0,1-3.11-3.15V489.08a3.11,3.11,0,1,1,6.22,0v20.06a3.13,3.13,0,0,1-3.11,3.15"></path><path class="cls-2" d="M531.62,516.15c-19.14,0-32.54-4.33-39.83-12.9a27.48,27.48,0,0,1,0-33c7.29-8.55,20.69-12.9,39.83-12.9a84.18,84.18,0,0,1,22.16,2.6,3.12,3.12,0,0,1-1.67,6,78.58,78.58,0,0,0-20.49-2.36c-16.9,0-29,3.68-35,10.6a16.2,16.2,0,0,0-4.12,12.08,2.66,2.66,0,0,1,0,1,16.28,16.28,0,0,0,4.13,12.06c6,6.94,18.08,10.59,35,10.59a78,78,0,0,0,20.49-2.36,3.12,3.12,0,0,1,1.68,6,83.87,83.87,0,0,1-22.17,2.59"></path><path class="cls-1" d="M269.33,191.86a90.44,90.44,0,0,0,14.49-2.44c15.4-4.15,23.18-13,23.18-26.16s-7.7-21.83-22.94-25.82c-11.78-3.09-26.5-3.08-40.76-3.09h-.68a396.56,396.56,0,0,0-49.42,3,5.67,5.67,0,0,0-4.86,5.61v82.59a5.64,5.64,0,1,0,11.29,0V190.06a350.49,350.49,0,0,0,43,2.66c3.15,0,6.48,0,9.9-.05.15.15.25.4.45.54l43.84,35.25a5.72,5.72,0,0,0,4.06,1.21,5.5,5.5,0,0,0,3.88-2.1,5.61,5.61,0,0,0-.87-7.93Zm-69.71-13.21V148a402.08,402.08,0,0,1,43-2.32h.68c13.53,0,27.5,0,37.89,2.71,7.18,1.9,14.51,5.13,14.51,14.89,0,16.82-23,18.16-53.08,18.16a338.09,338.09,0,0,1-43-2.76"></path></svg>